<?xml version="1.0" encoding="UTF-8" standalone="no"?>
<!-- Created with Inkscape (http://www.inkscape.org/) -->

<svg
   xmlns:dc="http://purl.org/dc/elements/1.1/"
   xmlns:cc="http://creativecommons.org/ns#"
   xmlns:rdf="http://www.w3.org/1999/02/22-rdf-syntax-ns#"
   xmlns:svg="http://www.w3.org/2000/svg"
   xmlns="http://www.w3.org/2000/svg"
   xmlns:sodipodi="http://sodipodi.sourceforge.net/DTD/sodipodi-0.dtd"
   xmlns:inkscape="http://www.inkscape.org/namespaces/inkscape"
   width="90.652237mm"
   height="91.825668mm"
   viewBox="0 0 90.652237 91.825668"
   version="1.1"
   id="svg8"
   inkscape:version="0.92.4 (5da689c313, 2019-01-14)"
   sodipodi:docname="MareLevel3.svg">
  <defs
     id="defs2" />
  <sodipodi:namedview
     id="base"
     pagecolor="#ffffff"
     bordercolor="#666666"
     borderopacity="1.0"
     inkscape:pageopacity="0.0"
     inkscape:pageshadow="2"
     inkscape:zoom="0.98994949"
     inkscape:cx="352.42656"
     inkscape:cy="301.55695"
     inkscape:document-units="mm"
     inkscape:current-layer="layer1"
     showgrid="false"
     inkscape:pagecheckerboard="true"
     fit-margin-top="0"
     fit-margin-left="0"
     fit-margin-right="0"
     fit-margin-bottom="0"
     inkscape:window-width="2400"
     inkscape:window-height="1271"
     inkscape:window-x="2391"
     inkscape:window-y="-9"
     inkscape:window-maximized="1" />
  <metadata
     id="metadata5">
    <rdf:RDF>
      <cc:Work
         rdf:about="">
        <dc:format>image/svg+xml</dc:format>
        <dc:type
           rdf:resource="http://purl.org/dc/dcmitype/StillImage" />
        <dc:title></dc:title>
      </cc:Work>
    </rdf:RDF>
  </metadata>
  <g
     inkscape:label="Layer 1"
     inkscape:groupmode="layer"
     id="layer1"
     transform="translate(-6.2162105,-118.449)">
    <g
       id="g890"
       transform="translate(5.61266,6.4144687)"
       inkscape:export-xdpi="96"
       inkscape:export-ydpi="96">
      <g
         id="g906">
        <ellipse
           style="fill:#34a438;fill-opacity:1;stroke:#ededed;stroke-width:7.01557827;stroke-miterlimit:4;stroke-dasharray:none;stroke-opacity:1"
           id="path828-0"
           cx="51.308762"
           cy="48.334965"
           rx="41.81805"
           ry="42.405197"
           transform="matrix(0.99991396,0.01311738,-0.01330767,0.99991145,0,0)" />
        <path
           style="fill:#e9f4ff;fill-opacity:1;stroke:none;stroke-width:8.65870762;stroke-miterlimit:4;stroke-dasharray:none;stroke-opacity:1"
           d="m 23.185637,67.85875 c -0.63998,-0.815085 -0.59748,-2.164066 0.0896,-2.843344 0.32782,-0.324101 1.05589,-0.538921 1.79364,-0.529244 l 1.24185,0.0163 0.0534,-4.007427 c 0.0374,-2.808726 -0.0496,-4.008765 -0.29071,-4.011929 -0.18922,-0.0024 -0.78816,0.365412 -1.33096,0.817561 -1.66406,1.386107 -2.27219,1.134185 -3.95489,-1.638429 -0.99141,-1.633546 -1.45178,-2.716835 -1.39171,-3.274857 0.0693,-0.644104 0.89418,-1.457518 3.62499,-3.574761 l 3.53524,-2.740917 0.0621,-4.665567 c 0.0343,-2.57747 0.20388,-4.952864 0.37889,-5.307483 0.26943,-0.545951 0.64646,-0.637577 2.52229,-0.61297 2.74593,0.03603 3.12652,0.482892 3.08475,3.621888 -0.0153,1.153013 0.0327,2.097176 0.1067,2.098147 0.074,9.4e-4 1.0383,-0.700323 2.14285,-1.558435 4.39099,-3.411336 6.97224,-5.400316 10.43088,-8.03752 l 2.63217,-2.007018 0.0362,-2.715757 c 0.0222,-1.666983 0.17616,-2.868703 0.39873,-3.111807 0.48125,-0.525669 4.47498,-0.473277 4.94206,0.06483 0.21158,0.243743 0.33855,1.411058 0.31837,2.927059 l -0.0335,2.521632 4.76318,3.9033 c 8.11768,6.652224 10.40006,8.479764 10.5977,8.485726 0.10495,0.0029 0.25687,-1.128181 0.33777,-2.514106 0.10221,-1.751275 0.28254,-2.613303 0.59124,-2.826215 0.65044,-0.448589 4.27931,-0.340396 4.69631,0.140015 0.23987,0.276327 0.3335,1.899562 0.29406,5.097511 -0.0317,2.580645 0.0385,4.847047 0.15629,5.036447 0.20513,0.329816 2.19565,2.030006 5.35252,4.571807 1.92348,1.548732 1.91428,2.203808 -0.0743,5.278519 -1.72846,2.672618 -2.1288,2.832229 -3.80693,1.517762 -1.78648,-1.399332 -1.83296,-1.321997 -1.89245,3.148268 l -0.0534,4.007425 1.02073,0.01339 c 1.24362,0.01632 1.9467,0.755695 1.92975,2.029368 -0.0283,2.129061 1.68517,2.026168 -27.39155,1.644723 -25.22606,-0.330925 -26.45123,-0.374736 -26.91376,-0.963887 z m 24.42726,-15.435221 c 0.13333,-10.017646 0.0901,-12.35718 -0.2289,-12.361367 -0.21634,-0.0028 -2.68552,1.78298 -5.48706,3.968488 -2.80153,2.18551 -6.07505,4.716509 -7.27448,5.624451 l -2.18078,1.650815 -0.0883,6.637325 -0.0883,6.637325 7.59173,0.09959 7.59172,0.09959 z m 21.35736,6.150763 0.0863,-6.48666 -0.80898,-0.741057 c -2.31808,-2.123402 -14.0715,-11.529319 -14.41237,-11.53379 -0.3236,-0.0043 -0.4276,2.306239 -0.56351,12.517981 l -0.16667,12.523189 7.88944,0.103496 7.88943,0.103495 z"
           id="path826-5"
           inkscape:connector-curvature="0" />
      </g>
    </g>
    <g
       id="g894"
       transform="translate(0,6.1471991)">
      <ellipse
         transform="matrix(0.99991396,0.01311738,-0.01330767,0.99991145,0,0)"
         ry="42.405197"
         rx="41.81805"
         cy="47.766483"
         cx="155.61929"
         id="path828-0-5"
         style="fill:#aacf00;fill-opacity:1;stroke:#ededed;stroke-width:7.01557827;stroke-miterlimit:4;stroke-dasharray:none;stroke-opacity:1" />
      <path
         inkscape:connector-curvature="0"
         id="path826-5-9"
         d="m 127.49476,68.6586 c -0.63998,-0.815083 -0.59748,-2.164064 0.0896,-2.843342 0.32782,-0.324101 1.05589,-0.538922 1.79364,-0.529246 l 1.24185,0.0163 0.0534,-4.007426 c 0.0374,-2.808727 -0.0496,-4.008766 -0.29071,-4.01193 -0.18922,-0.0024 -0.78816,0.365413 -1.33096,0.817562 -1.66406,1.386107 -2.27219,1.134184 -3.95489,-1.63843 -0.99141,-1.633545 -1.45178,-2.716834 -1.39171,-3.274856 0.0693,-0.644104 0.89418,-1.457518 3.62499,-3.574762 l 3.53524,-2.740916 0.0621,-4.665568 c 0.0343,-2.57747 0.20388,-4.952865 0.37889,-5.307483 0.26943,-0.545952 0.64646,-0.637577 2.52229,-0.612971 2.74592,0.03603 3.12651,0.482894 3.08475,3.621889 -0.0153,1.153012 0.0327,2.097175 0.1067,2.098146 0.074,0.0011 1.0383,-0.700323 2.14285,-1.558433 4.39099,-3.411336 6.97224,-5.400317 10.43088,-8.037519 l 2.63217,-2.007018 0.0362,-2.715758 c 0.0222,-1.666983 0.17616,-2.868703 0.39873,-3.111807 0.48125,-0.525669 4.47498,-0.473277 4.94206,0.06483 0.21158,0.243743 0.33855,1.411058 0.31837,2.927059 l -0.0335,2.521632 4.76318,3.903299 c 8.11768,6.652225 10.40006,8.479763 10.5977,8.485727 0.10495,0.0029 0.25687,-1.128181 0.33777,-2.514106 0.10221,-1.751277 0.28254,-2.613305 0.59124,-2.826215 0.65044,-0.448591 4.27931,-0.340397 4.69631,0.140015 0.23987,0.276325 0.3335,1.899562 0.29406,5.09751 -0.0317,2.580645 0.0385,4.847047 0.15629,5.036447 0.20513,0.329816 2.19565,2.030007 5.35252,4.571807 1.92348,1.548733 1.91428,2.203809 -0.0743,5.278519 -1.72846,2.672617 -2.1288,2.83223 -3.80693,1.517761 -1.78648,-1.399331 -1.83296,-1.321996 -1.89245,3.148269 l -0.0534,4.007424 1.02073,0.01339 c 1.24362,0.01632 1.9467,0.755695 1.92975,2.029368 -0.0283,2.129062 1.68517,2.026168 -27.39155,1.644724 -25.22606,-0.330929 -26.45123,-0.374741 -26.91376,-0.963892 z m 24.42726,-15.43522 c 0.13332,-10.017646 0.0901,-12.357179 -0.2289,-12.361368 -0.21635,-0.0028 -2.68552,1.78298 -5.48706,3.968488 -2.80153,2.185512 -6.07506,4.71651 -7.27449,5.624452 l -2.18077,1.650815 -0.0883,6.637324 -0.0883,6.637327 7.59173,0.09959 7.59172,0.09959 z m 21.35736,6.150763 0.0863,-6.486659 -0.80898,-0.741059 c -2.31808,-2.1234 -14.0715,-11.529319 -14.41237,-11.53379 -0.3236,-0.0043 -0.4276,2.30624 -0.56351,12.517982 l -0.16667,12.52319 7.88944,0.103494 7.88943,0.103497 z"
         style="fill:#eef4fa;fill-opacity:1;stroke:none;stroke-width:8.65870857;stroke-miterlimit:4;stroke-dasharray:none;stroke-opacity:1" />
    </g>
    <g
       id="g898"
       transform="translate(2.4054257,18.174328)">
      <ellipse
         transform="matrix(0.99991396,0.01311738,-0.01330767,0.99991145,0,0)"
         ry="42.405197"
         rx="41.81805"
         cy="145.53038"
         cx="51.077969"
         id="path828-0-2"
         style="fill:#fdb500;fill-opacity:1;stroke:#ededed;stroke-width:7.01557827;stroke-miterlimit:4;stroke-dasharray:none;stroke-opacity:1" />
      <path
         inkscape:connector-curvature="0"
         id="path826-5-0"
         d="m 21.661421,165.04253 c -0.63998,-0.81508 -0.59748,-2.16406 0.0896,-2.84334 0.32782,-0.3241 1.05589,-0.53892 1.79364,-0.52925 l 1.24185,0.0163 0.0534,-4.00742 c 0.0374,-2.80873 -0.0496,-4.00877 -0.29071,-4.01193 -0.18922,-0.002 -0.78816,0.36541 -1.33096,0.81756 -1.66406,1.3861 -2.27219,1.13418 -3.95489,-1.63843 -0.99141,-1.63355 -1.45178,-2.71684 -1.39171,-3.27486 0.0693,-0.6441 0.89418,-1.45752 3.62499,-3.57476 l 3.53524,-2.74092 0.0621,-4.66556 c 0.0343,-2.57747 0.20388,-4.95287 0.37889,-5.30749 0.26943,-0.54595 0.64646,-0.63757 2.52229,-0.61297 2.74593,0.036 3.12652,0.4829 3.08475,3.62189 -0.0153,1.15301 0.0327,2.09718 0.1067,2.09815 0.074,0.001 1.0383,-0.70033 2.14285,-1.55844 4.39099,-3.41133 6.97224,-5.40031 10.43088,-8.03752 l 2.63217,-2.00701 0.0362,-2.71576 c 0.0222,-1.66699 0.17616,-2.86871 0.39873,-3.11181 0.48125,-0.52567 4.47498,-0.47328 4.94206,0.0648 0.21158,0.24374 0.33855,1.41106 0.31837,2.92706 l -0.0335,2.52163 4.76318,3.9033 c 8.11769,6.65223 10.40007,8.47976 10.5977,8.48573 0.10495,0.003 0.25688,-1.12818 0.33777,-2.51411 0.10222,-1.75127 0.28254,-2.6133 0.59124,-2.82621 0.65045,-0.44859 4.27931,-0.3404 4.69631,0.14001 0.23988,0.27633 0.33351,1.89956 0.29406,5.09751 -0.0317,2.58065 0.0385,4.84705 0.15629,5.03645 0.20514,0.32982 2.19565,2.03001 5.35252,4.57181 1.92349,1.54873 1.91429,2.20381 -0.0743,5.27852 -1.72846,2.67261 -2.1288,2.83223 -3.80692,1.51776 -1.78648,-1.39933 -1.83297,-1.322 -1.89245,3.14827 l -0.0534,4.00742 1.02073,0.0134 c 1.24362,0.0163 1.9467,0.75569 1.92975,2.02937 -0.0283,2.12906 1.68517,2.02617 -27.39156,1.64472 -25.22606,-0.33093 -26.45123,-0.37474 -26.91376,-0.96389 z m 24.42726,-15.43522 c 0.13333,-10.01765 0.0901,-12.35718 -0.2289,-12.36137 -0.21634,-0.003 -2.68552,1.78298 -5.48706,3.96849 -2.80153,2.18551 -6.07505,4.71651 -7.27448,5.62445 l -2.18078,1.65082 -0.0883,6.63732 -0.0883,6.63733 7.59173,0.0996 7.59172,0.0996 z m 21.35736,6.15076 0.0863,-6.48666 -0.80898,-0.74106 c -2.31808,-2.1234 -14.0715,-11.52931 -14.41237,-11.53379 -0.3236,-0.004 -0.4276,2.30624 -0.56351,12.51799 l -0.16667,12.52319 7.88944,0.10349 7.88943,0.1035 z"
         style="fill:#eef4fa;fill-opacity:1;stroke:none;stroke-width:8.65870857;stroke-miterlimit:4;stroke-dasharray:none;stroke-opacity:1" />
    </g>
    <g
       id="g902"
       transform="translate(0.80180858,16.83798)">
      <ellipse
         transform="matrix(0.99991396,0.01311738,-0.01330767,0.99991145,0,0)"
         ry="42.405197"
         rx="41.81805"
         cy="144.88313"
         cx="158.04582"
         id="path828-0-0"
         style="fill:#df2222;fill-opacity:1;stroke:#ededed;stroke-width:7.01557827;stroke-miterlimit:4;stroke-dasharray:none;stroke-opacity:1" />
      <path
         inkscape:connector-curvature="0"
         id="path826-5-3"
         d="m 128.62868,165.79849 c -0.63998,-0.81509 -0.59748,-2.16407 0.0896,-2.84335 0.32782,-0.3241 1.05589,-0.53892 1.79364,-0.52924 l 1.24185,0.0163 0.0534,-4.00743 c 0.0374,-2.80872 -0.0496,-4.00876 -0.29071,-4.01193 -0.18922,-0.002 -0.78816,0.36542 -1.33096,0.81756 -1.66406,1.38611 -2.27219,1.13419 -3.95489,-1.63843 -0.99141,-1.63354 -1.45178,-2.71683 -1.39171,-3.27485 0.0693,-0.64411 0.89418,-1.45752 3.62499,-3.57476 l 3.53524,-2.74092 0.0621,-4.66557 c 0.0343,-2.57747 0.20388,-4.95287 0.37889,-5.30749 0.26943,-0.54595 0.64646,-0.63757 2.52229,-0.61297 2.74593,0.036 3.12652,0.4829 3.08475,3.62189 -0.0153,1.15301 0.0327,2.09718 0.1067,2.09815 0.074,10e-4 1.0383,-0.70032 2.14285,-1.55843 4.39099,-3.41134 6.97224,-5.40032 10.43088,-8.03752 l 2.63217,-2.00702 0.0362,-2.71576 c 0.0222,-1.66698 0.17617,-2.8687 0.39874,-3.11181 0.48124,-0.52567 4.47498,-0.47327 4.94206,0.0648 0.21158,0.24375 0.33855,1.41106 0.31837,2.92706 l -0.0335,2.52163 4.76318,3.9033 c 8.11768,6.65223 10.40006,8.47977 10.5977,8.48573 0.10495,0.003 0.25687,-1.12818 0.33777,-2.51411 0.10221,-1.75127 0.28254,-2.6133 0.59124,-2.82621 0.65044,-0.44859 4.27931,-0.3404 4.69631,0.14001 0.23987,0.27633 0.3335,1.89957 0.29406,5.09751 -0.0317,2.58065 0.0385,4.84705 0.15629,5.03645 0.20513,0.32982 2.19565,2.03001 5.35252,4.57181 1.92348,1.54874 1.91428,2.20381 -0.0743,5.27852 -1.72846,2.67262 -2.1288,2.83223 -3.80693,1.51776 -1.78648,-1.39933 -1.83296,-1.32199 -1.89245,3.14827 l -0.0534,4.00743 1.02073,0.0134 c 1.24362,0.0163 1.9467,0.75569 1.92975,2.02936 -0.0283,2.12907 1.68517,2.02617 -27.39155,1.64473 -25.22607,-0.33093 -26.45124,-0.37474 -26.91377,-0.96389 z m 24.42726,-15.43522 c 0.13333,-10.01765 0.0901,-12.35719 -0.2289,-12.36138 -0.21634,-0.003 -2.68552,1.78298 -5.48706,3.96849 -2.80153,2.18551 -6.07505,4.71652 -7.27448,5.62446 l -2.18078,1.65081 -0.0883,6.63733 -0.0883,6.63732 7.59173,0.0996 7.59172,0.0996 z m 21.35736,6.15076 0.0863,-6.48666 -0.80898,-0.74106 c -2.31808,-2.1234 -14.0715,-11.52932 -14.41237,-11.53379 -0.32359,-0.004 -0.42759,2.30624 -0.56351,12.51798 l -0.16666,12.52319 7.88943,0.1035 7.88943,0.10349 z"
         style="fill:#eef4fa;fill-opacity:1;stroke:none;stroke-width:8.65870857;stroke-miterlimit:4;stroke-dasharray:none;stroke-opacity:1" />
    </g>
  </g>
</svg>
